<svg id="Layer_1" data-name="Layer 1" xmlns="http://www.w3.org/2000/svg" viewBox="0 0 553.81 495.56"><defs><style>.cls-1,.cls-2{fill:none;}.cls-1,.cls-2,.cls-3,.cls-6{stroke:#222;}.cls-1,.cls-2,.cls-3,.cls-5,.cls-6{stroke-miterlimit:10;stroke-width:3px;}.cls-2,.cls-5,.cls-6{stroke-linecap:round;}.cls-3,.cls-4,.cls-5,.cls-6{fill:#fff;}.cls-5{stroke:#fff;}</style></defs><path class="cls-1" d="M310.11,117.23C305.59,93.45,289.24,78,276.59,78.77c-14.49.92-31.95,23.74-26.4,54.46,4,18.35,18.15,30.69,31,30.47C297.39,163.42,315.19,143,310.11,117.23Z" transform="translate(-47.97 -50.42)"/><path class="cls-2" d="M285.9,118c.81,1,4.52,5.39,8.85,5.05,5.38-.42,10.75-8.09,9.51-18.82" transform="translate(-47.97 -50.42)"/><path class="cls-2" d="M255,123.45c.74,1.31,2.75,4.42,6.31,5.38,5,1.35,11-2.11,14.5-8.8" transform="translate(-47.97 -50.42)"/><path class="cls-3" d="M276.41,72.47c-1.11-2.73-3.71-7.8-8.69-9.36-7.24-2.28-15.69,4.11-19.57,9.19-2.12,2.77-2.79,5-6.47,9a42.94,42.94,0,0,1-6.3,5.62,22.29,22.29,0,0,1-10.77,4.75C217.35,92.66,213.19,89,203,89a42.53,42.53,0,0,0-7.83.68c-5.86,1.2-14,3.83-20.76,10.38C166.27,108,169.13,113,161.85,121c-11.13,12.22-23.87,7.17-32.49,19.78-1.14,1.66-5.89,8.64-3.93,16,2.65,9.93,15.89,14.9,25.7,14a26.21,26.21,0,0,0,13.45-5.45,49.67,49.67,0,0,1,27.23-10.38c15.34-1,20.41,9.64,39.66,14.3,18.42,4.46,35-.15,38.3-6.13a12.91,12.91,0,0,0,1.17-3.07c.54-2.58.1-6.33-3.56-13.1-14.59-27-13.49-39.27-8.85-45.27,5.93-7.68,15-7.63,18.05-17.88A20,20,0,0,0,276.41,72.47Z" transform="translate(-47.97 -50.42)"/><path class="cls-3" d="M277.31,65.66c.1-1,1-8.92,7.1-12.26,6.6-3.63,17.08-.57,22.63,8.86a43.29,43.29,0,0,0,13.45,11.4c14.65,7.81,24.67,1.35,35.92,8.68,8.39,5.47,5.12,14.23,15.14,21.28a31.38,31.38,0,0,0,12.32,5.06,64.07,64.07,0,0,0,14.58-.81c11.3-1.93,14.16-5.59,22.13-6.48,1.41-.16,14.52-1.42,24.34,7.16,9.63,8.43,13.21,23.81,8.51,33-6.74,13.2-33,19.09-61.62,4.93a16.13,16.13,0,0,0-8-1.53c-12.2,1-15.13,17.41-25.53,18-5.82.36-6.85-6.12-17.87-8.34a28,28,0,0,0-9-.56c-10.62,1.17-14.44,8.45-17.83,6.75-3.68-1.84-2.61-12.17-1.91-19,.92-8.93,3.06-14.18.34-16.52-2.2-1.88-5,.37-7.22-1.58-2.95-2.64.65-7.74-.44-15.27-1.32-9.18-8.65-15.36-10.21-16.68-6.41-5.41-9.74-3.34-13.62-8.34C276.36,78.21,276.46,71.1,277.31,65.66Z" transform="translate(-47.97 -50.42)"/><line class="cls-2" x1="227.32" y1="70.73" x2="229.12" y2="78.83"/><line class="cls-2" x1="223.34" y1="75.46" x2="223.67" y2="81.97"/><line class="cls-2" x1="217.46" y1="78.71" x2="217.46" y2="84.69"/><line class="cls-2" x1="238.27" y1="68.78" x2="237.93" y2="76.44"/><line class="cls-2" x1="243.52" y1="72.01" x2="243.92" y2="77.2"/><polygon class="cls-2" points="157.37 438.39 445.15 389.88 445.15 376.98 157.37 424.6 157.37 438.39"/><line class="cls-2" x1="248.55" y1="72.19" x2="250.05" y2="77.37"/><line class="cls-2" x1="254.39" y1="67.16" x2="257.12" y2="75.67"/><path class="cls-3" d="M270.71,154.87c-4.47,5.91-9.53,12.13-15.27,18.52s-11.29,12-16.65,17a24.73,24.73,0,0,0,12.59,5.78c10.68,1.41,21.91-5.06,28.68-16.34q4.05-8.51,8.09-17a15.58,15.58,0,0,1-11.91-1.7A14.9,14.9,0,0,1,270.71,154.87Z" transform="translate(-47.97 -50.42)"/><polygon class="cls-1" points="445.15 376.98 390.22 275.75 188.52 307.92 157.37 424.6 445.15 376.98"/><path class="cls-4" d="M164.3,446.54a201.87,201.87,0,0,0,79.94-23.6,18,18,0,0,0,4.17,12.59,17.3,17.3,0,0,0,7.74,5.11,301.33,301.33,0,0,1-30.66,34.7,301.55,301.55,0,0,1-29.71,25.32Q180,473.6,164.3,446.54Z" transform="translate(-47.97 -50.42)"/><path class="cls-2" d="M246.62,366.43,429,336.64l18.77,34.25a4.45,4.45,0,0,1-3.2,6.53l-202,32.06a3.82,3.82,0,0,1-4.33-4.58Z" transform="translate(-47.97 -50.42)"/><path class="cls-2" d="M304.75,412.31,302.45,443a3.64,3.64,0,0,0,4.24,3.85L399.82,431a4.38,4.38,0,0,0,3.3-6l-11.75-28a4.56,4.56,0,0,0-5-2.73l-77.58,13.61A4.9,4.9,0,0,0,304.75,412.31Z" transform="translate(-47.97 -50.42)"/><path class="cls-5" d="M503.53,496.09a370,370,0,0,1-136.74-85.75c.58,0,7,.17,10.95-5.1a13.34,13.34,0,0,0,2.32-10.36,599.39,599.39,0,0,0,73.59,8,598.85,598.85,0,0,0,77.22-1.4Q517.2,448.79,503.53,496.09Z" transform="translate(-47.97 -50.42)"/><path class="cls-1" d="M312.1,393.16l67-10.4a2,2,0,0,0,1.43-3l-1.19-2a2.3,2.3,0,0,0-2.32-1.09L312.11,387a2.06,2.06,0,0,0-1.7,1.7l-.38,2.44A1.81,1.81,0,0,0,312.1,393.16Z" transform="translate(-47.97 -50.42)"/><path class="cls-1" d="M211.72,383.62" transform="translate(-47.97 -50.42)"/><path class="cls-2" d="M530.87,401.49a533.37,533.37,0,0,1-54.79,2.15,535,535,0,0,1-96.36-10,12.51,12.51,0,0,1,0,8.17c-1.78,4.87-6.89,8.23-12.93,8.51A369.6,369.6,0,0,0,423,456a373.16,373.16,0,0,0,107.91,48.68c22.88,6.48,46.91-1.45,59.92-19.41,15.79-21.8,7.3-47.32,6.47-49.7-4.61-19.46-46.53-185.12-193.71-240-47.2-17.6-91.29-18.61-123.49-15.66-.58,1.31-5.69,12.25-18.34,15.35-12.33,3-21.73-3.88-22.93-4.79-46.86,13.65-78.25,36-95.66,50.72-4.52,3.8-95.86,83.3-93.62,206.64a251.12,251.12,0,0,0,8.17,58.89c3.85,10.86,11.4,26.09,26.36,33.55,27.77,13.85,64.69-9,93.47-27.08,20.23-12.69,50.12-35,78.64-72.51a18.15,18.15,0,0,1-9.53-7.83,17.84,17.84,0,0,1-2.38-9.87,201.14,201.14,0,0,1-155.92,15" transform="translate(-47.97 -50.42)"/><path class="cls-3" d="M216.24,404.89" transform="translate(-47.97 -50.42)"/><path class="cls-6" d="M256.15,440.64l11.74-20.11,14.81-14.44,6.9-12.91,1.53-20.09L287,370.85l-.51-4.59-4.08-2.3L278.36,368l-12.25,1.28-15.32,17.62v25l-6.55,11a17.75,17.75,0,0,0,11.91,17.7Z" transform="translate(-47.97 -50.42)"/><line class="cls-2" x1="230.77" y1="317.24" x2="221.46" y2="334.49"/><line class="cls-2" x1="239.07" y1="320.43" x2="226.82" y2="343.76"/><path class="cls-6" d="M379.72,393.46l-20.55-10.94-15-14.23L331,361.91l-20.15-.74a2.87,2.87,0,0,0-2.18,1.43,2.72,2.72,0,0,0,.11,2.74l-3.94-.62A3.64,3.64,0,0,0,302,366a3.59,3.59,0,0,0,0,4.21l4.25,3.92,1.76,12.19,18.21,14.61,25-1,15.51,10.39a12.9,12.9,0,0,0,12.93-16.88Z" transform="translate(-47.97 -50.42)"/><line class="cls-2" x1="257.62" y1="323.07" x2="272.19" y2="336.18"/><line class="cls-2" x1="260.79" y1="315.25" x2="281.6" y2="331.41"/><line class="cls-2" x1="269.01" y1="311.12" x2="285.64" y2="321.5"/><polygon class="cls-3" points="161.12 167.75 377.88 139.54 391.16 275.75 189.46 307.92 161.12 167.75"/><polygon class="cls-3" points="173.12 178.11 367.47 153.05 378.2 264.75 196.41 293.53 173.12 178.11"/><line class="cls-1" x1="234.5" y1="190.01" x2="263.02" y2="186.26"/><line class="cls-1" x1="242.04" y1="195.47" x2="279.36" y2="190.57"/><line class="cls-1" x1="252.63" y1="200.57" x2="290.93" y2="195.54"/><line class="cls-1" x1="258.82" y1="205.69" x2="300.66" y2="200.2"/><line class="cls-1" x1="258.85" y1="212.35" x2="295.49" y2="207.53"/><line class="cls-1" x1="250.32" y1="220.04" x2="291.09" y2="214.68"/><line class="cls-1" x1="244.92" y1="226.76" x2="279.86" y2="222.16"/><line class="cls-1" x1="220.2" y1="171.96" x2="236.89" y2="286.22"/><line class="cls-1" x1="246.23" y1="233.59" x2="274.75" y2="229.84"/><line class="cls-1" x1="254.77" y1="239.05" x2="292.1" y2="234.15"/><line class="cls-1" x1="265.36" y1="244.16" x2="303.66" y2="239.13"/><line class="cls-1" x1="271.56" y1="249.28" x2="313.39" y2="243.78"/><line class="cls-1" x1="271.58" y1="255.93" x2="308.22" y2="251.12"/><line class="cls-1" x1="263.05" y1="263.62" x2="303.82" y2="258.27"/><line class="cls-1" x1="256.65" y1="270.34" x2="291.59" y2="265.74"/></svg>