<svg id="Layer_1" data-name="Layer 1" xmlns="http://www.w3.org/2000/svg" viewBox="0 0 509.04 506.49"><defs><style>.cls-1,.cls-3{fill:#fff;}.cls-2{fill:none;stroke-linecap:round;}.cls-2,.cls-3{stroke:#222;stroke-miterlimit:10;stroke-width:3px;}</style></defs><rect class="cls-1" width="509.04" height="506.49"/><path class="cls-2" d="M376.18,419.31c-2.34-13.7-16-86.1-71.85-114.42-67.6-34.26-178.72,5.31-236.42,115.46"/><path class="cls-3" d="M341,255c3.31,2.3,8.56,5.15,13.91,3.89,13-3.06,11.65-26.72,26.29-35.61,5.91-3.59,16.19-5.86,35.13,1.93,9.88,2,19.89-.77,25.43-7.61,8-9.85,6.1-27.43-7.07-38a84.17,84.17,0,0,0-17.36-9.33c-15.22-6-26.08-4.51-41.19-5.55-21.39-1.47-32.08-2.2-41.78-7.05-17.92-8.95-14.52-20-40.66-40-16.92-13-25.75-14.1-31.63-13.54a36,36,0,0,0-20.49,9.24Z"/><path class="cls-3" d="M311,270.92c-1.38-3.12-12-26.45-24.32-25.94-11.8.48-24.42,22.6-25.72,56.67-6,8.46-6.82,19.23-2.16,27.59,6.22,11.18,20.49,14.88,29.69,11.42,11.25-4.24,14.5-19,19-39.49A153.54,153.54,0,0,0,311,270.92Z"/><path class="cls-3" d="M284.64,275.25c-.23,4.35-1.42,16.29-10.09,22.5-12.41,8.88-31.89.16-36.74-2-17.87-8-21.4-18.4-34.67-18.95-8-.33-14.8,3.28-19.33,6.46-12.62,7.36-21.27,7.19-26.81,5.73-11.63-3.08-14.63-13.67-27.42-15.31a35.24,35.24,0,0,0-18.87,3.23c-19,9-40.21,1.9-48-12.21-9.06-16.39-.18-42.58,23.46-50.8,10.28-3.57,13.76-5.4,31.12-11.32,22.19-7.57,30.36-11.78,33.07-13.21,8.78-4.63,13.18-7,16.35-10.05,14-13.66,5.77-27.78,18.56-46.71,2.32-3.44,10.72-15.34,26.31-20.28a44.24,44.24,0,0,1,50.24,17.36Q273.22,202.46,284.64,275.25Z"/><path class="cls-3" d="M224.09,193.09c-1.62-.91-7.92-4.19-14.35-1.93-8.15,2.87-13.61,13.63-11,25.62a46.83,46.83,0,0,0,5.33,14,49.35,49.35,0,0,0,22.34,19.87,10.38,10.38,0,0,0,8.85,0,10.19,10.19,0,0,0,5.08-10.49q6.9,5.72,14.4,11.53,9.2,7.11,18.08,13.39c22.21,11.91,47,8.07,59-6.62,9.22-11.3,8.16-25.64,7.65-30.05a117.16,117.16,0,0,0-40.13-83.29A54,54,0,0,0,277.26,132a52.7,52.7,0,0,0-15.46-2.27,40.26,40.26,0,0,1-6.73,18.24c-6,8.6-12.52,10.06-19.08,16.83C231.38,169.51,225.86,177.85,224.09,193.09Z"/><path class="cls-2" d="M278,189.69a34,34,0,0,1-31.86,13.05"/><path class="cls-2" d="M327.08,166.2A25.3,25.3,0,0,1,318,177.4a25.57,25.57,0,0,1-14.61,4.34"/><path class="cls-2" d="M242.41,173.42c-19.49,15.26-22.33,40.77-11,54.77,7.74,9.55,21.8,13.39,35.71,10.72,19.61-6.69,29.34-28.71,21.74-46.92C281.61,174.59,260.67,165.81,242.41,173.42Z"/><path class="cls-2" d="M309.3,146.06c-16.68,14.21-19,38.05-9.22,51.19,6.69,9,18.78,12.62,30.72,10.18,16.83-6.18,25.1-26.75,18.5-43.81C343,147.31,325,139,309.3,146.06Z"/><line class="cls-2" x1="247.57" y1="204.26" x2="248.2" y2="216.33"/><line class="cls-2" x1="255.19" y1="202.9" x2="259.76" y2="216.7"/><line class="cls-2" x1="262.31" y1="201.11" x2="269.96" y2="213.62"/><line class="cls-2" x1="270.26" y1="198.52" x2="279.04" y2="210.11"/><line class="cls-2" x1="276.58" y1="192.81" x2="284.66" y2="201.85"/><line class="cls-2" x1="306.38" y1="181.6" x2="310.62" y2="194.02"/><line class="cls-2" x1="315.21" y1="180.98" x2="320.55" y2="191.75"/><line class="cls-2" x1="321.23" y1="175.66" x2="329.05" y2="185.73"/><line class="cls-2" x1="325.67" y1="169.06" x2="334.56" y2="177.32"/></svg>