<svg xmlns="http://www.w3.org/2000/svg" viewBox="0 0 272.11 415.99"><defs><style>.cls-1,.cls-2{fill:none;stroke:#222;stroke-miterlimit:10;stroke-width:5px;}.cls-2{stroke-linecap:round;}</style></defs><g id="Layer_4" data-name="Layer 4"><path class="cls-1" d="M362.49,272.55a196.19,196.19,0,0,0-127.92,121c-8,20.37-13.87,23.88-17.56,23.69-9.31-.48-18-26.82-18.44-49.73-.3-16,3.56-23,.65-24.66-6.58-3.65-37.46,26-49.67,63.73-10.83,33.48-3.79,63.58.77,78.12a276.56,276.56,0,0,0,178,136.8c23.1,5.67,47.08-.83,62.52-17.31,16.57-17.69,16.54-39.66,16.41-44.62,4.26-25.45,12.47-95.91-27.9-164.48a227,227,0,0,0-47.49-56.68,62.3,62.3,0,0,1,38.3-26.05c7.88-1.73,16.72-10.1,17.36-19.91.53-8.23-5.5-17.56-14.23-20.11A19.13,19.13,0,0,0,362.49,272.55Z" transform="translate(-141.32 -210.03)"/><path class="cls-1" d="M201,341.32c.44-5.06,1.11-12.36,2-21.14,1.71-16.24,2.57-24.36,3.3-27,5-17.88,14.48-23,12.71-35.64a26.3,26.3,0,0,0-3.95-10.44,11,11,0,0,1-1.92-6.28,12.5,12.5,0,0,1,1.06-4.47,18.82,18.82,0,0,1,2.73-4.71,16.66,16.66,0,0,1,4.63-4.27c1.91-1.16,4.51-2.74,7.56-2a8.2,8.2,0,0,1,4.51,3.11c1.51,1.52,3.59,3.57,6.15,5.94,6.92,6.4,10.42,9.62,12.25,9.19,4.93-1.17,5-17.86,4.77-25.19.11-.23,2.52-4.76,7.63-5.11a9.33,9.33,0,0,1,8.71,4.77c0,1,.73,18.4,5.1,19.06,3.19.48,7.8-8,11.49-20.51.61-3.12,3.66-4.69,5.78-3.9a4.55,4.55,0,0,1,2.48,5,18.72,18.72,0,0,0,0,15.32,18.23,18.23,0,0,0,9.36,8.85A75.48,75.48,0,0,1,345,278.75c-15.69,6.59-24.06,11.34-28.9,14.67a17.89,17.89,0,0,1-8,3.46c-5.27.7-7.77-1.81-13.16-2.54-7.37-1-13.48,2.27-15,3.06-11.13,5.94-13.83,18.73-14,19.41-1.75,8.92,2.52,11.79-.06,20-1.75,5.58-5.57,7.74-8.68,12.45a270.19,270.19,0,0,0-16.05,28.29c-12.21,24.65-15,39-22.55,39.51-2.67.18-6.51-1.31-11.54-9A108.19,108.19,0,0,1,201,341.32Z" transform="translate(-141.32 -210.03)"/><path class="cls-1" d="M174.06,292.64c4.4-9.08,13.55-13.79,21.45-11.92,7,1.66,10.52,7.88,11.23,9.19Q205.32,300.32,204,311q-2,16.37-3.47,32.16a7.35,7.35,0,0,0-2.66-.61,9.11,9.11,0,0,0-5.73,2.24c-7,5.21-8.56,6.89-8.56,6.89-7.34,8.07-14.3,16.9-16.2,19.33a300,300,0,0,1,1.9-50.48C170.52,310.55,172.18,301.23,174.06,292.64Z" transform="translate(-141.32 -210.03)"/><path class="cls-2" d="M182.2,297.94c3.69,5.05,10,7.13,15.35,5.25,4.86-1.71,9.32-6.81,8.49-12.45-.7-4.78-4.86-7.41-5.61-7.86" transform="translate(-141.32 -210.03)"/><path class="cls-1" d="M214.45,246.26a10.71,10.71,0,0,0,10,4.89c6.67-.63,9.41-7.81,9.79-8.81,2.15-5.63,1.36-14.23-3.79-16.54-5-2.23-11.38,2.64-14.25,6.92C215.43,233.79,210.94,240.49,214.45,246.26Z" transform="translate(-141.32 -210.03)"/><path class="cls-2" d="M369.63,271.71a22.94,22.94,0,0,0-10.46,2.69,22.56,22.56,0,0,0-8.43,7.79c-.52.85-6.85,11.42-1.27,21,4.21,7.23,13.47,10.92,22.63,8.66" transform="translate(-141.32 -210.03)"/><path class="cls-2" d="M319.6,399.7a64.49,64.49,0,0,1-3.07-24.51c1.59-22.63,14.93-37.59,19.6-42.39" transform="translate(-141.32 -210.03)"/><path class="cls-2" d="M318.89,373.16a65,65,0,0,1,19.51,17.3c8.11,10.93,8.85,21.73,13,35.38,1.46,4.82,7.58,26.45,1.93,50.35-3.21,13.56-9.56,25.1-16.72,38.11-7.88,14.33-12.91,20-13.47,30.3-.59,10.87,4.13,20,8,25.77" transform="translate(-141.32 -210.03)"/><path class="cls-2" d="M308.09,518.24a60.13,60.13,0,0,1,46.65-49.61" transform="translate(-141.32 -210.03)"/><path class="cls-2" d="M352.54,529.71c-2.69-3-7.6-9.26-9.36-17.26a18.19,18.19,0,0,1-.44-7.82c.29-1.52,1.29-3.79,3.27-8.26,1.34-3,1.58-3.44,2.32-5.16,1.27-3,2.29-5.77,3.1-8.3" transform="translate(-141.32 -210.03)"/><path class="cls-2" d="M234.77,391.36a68.65,68.65,0,0,1-3.33,9.59,64.72,64.72,0,0,1-4.1,8c-2.05,3.35-3.25,4.54-4.51,6.36-5.73,8.27-5.44,19.24-5.19,28.71,0,.78.05,1.81.21,4.23,1,15.06,2.92,27.75,4.38,37.13,4.4,28.23,4.69,29.47,3.83,32.94-2.59,10.51-9.81,17.79-15.32,22.21" transform="translate(-141.32 -210.03)"/><path class="cls-2" d="M252.19,457.15c-3.94,4.21-7.42,5-9.28,5.22-9.35.94-20.53-10.07-25.3-28.29" transform="translate(-141.32 -210.03)"/><path class="cls-2" d="M202.43,495.31c3.47-2.08,10-6.57,14.08-13.68a23,23,0,0,0,2.74-7.34c.57-3,.37-5.57,0-10.75-.22-2.87-.37-3.35-.75-7.41-.31-3.33-.5-6.07-.61-7.91" transform="translate(-141.32 -210.03)"/></g></svg>