<svg id="Layer_2" data-name="Layer 2" xmlns="http://www.w3.org/2000/svg" viewBox="0 0 473.54 571.53"><defs><style>.cls-1,.cls-2,.cls-4,.cls-6,.cls-7{fill:#fff;}.cls-1,.cls-2,.cls-3,.cls-4,.cls-5,.cls-6,.cls-7,.cls-8,.cls-9{stroke:#222;stroke-miterlimit:10;}.cls-1,.cls-2,.cls-3{stroke-width:3px;}.cls-2,.cls-3,.cls-4,.cls-5{stroke-linecap:round;}.cls-3,.cls-5,.cls-8,.cls-9{fill:none;}.cls-4,.cls-5,.cls-7,.cls-9{stroke-width:2px;}</style></defs><path class="cls-1" d="M304.79,331.74a65.82,65.82,0,0,0-15.32,12c-7.66,8.1-11.38,16.29-14.3,23.49-9.32,22.94-15.17,47-17.87,59.07a354.06,354.06,0,0,0-43.49-66.76,352.94,352.94,0,0,0-35.66-37.24l-17.36,6.46a597.95,597.95,0,0,0,66.38,188.6c.54,1,12.45,22.92,33.7,23.15A33.89,33.89,0,0,0,278,535.83a206.49,206.49,0,0,0,46.92-50.74q-7.52-76.14-15-152.28Z" transform="translate(-46.23 -211.73)"/><path class="cls-1" d="M306,342.56a146.3,146.3,0,0,0-6.29,29.74c-3.18,30.57,4.42,53.42,20.77,100.08,12.87,36.74,23.11,65.24,28.93,81.36l73.53-74.55L311.6,335.53Z" transform="translate(-46.23 -211.73)"/><path class="cls-1" d="M286.65,297.91c-1,4.87-4,8.64-7.91,9.54-5,1.16-9.36-3-10.72-4.26-5.12-4.85-3.74-9.46-7.49-12.76-2.59-2.29-7.5-3.85-17.7-.86-3.86.65-5.86-.18-7-1.19-2.86-2.59-.74-7.1-3.72-9-2-1.21-6.29-1.4-6.83-1.42H225a11.59,11.59,0,0,1-6.83-2.69,10.84,10.84,0,0,1-3.55-7.17c-.4-5.11,3.48-10.47,9.74-13a45.91,45.91,0,0,1,8.14-1.94c9.82-1.42,13.32,1.1,23.32.68a45.47,45.47,0,0,0,15-3.31c5.52-2.2,9.12-5.2,14-9.12,5.8-4.68,6.25-6,12.26-11.4,9.18-8.31,13.76-12.46,20.76-14.81a31.13,31.13,0,0,1,18.22-1A29.94,29.94,0,0,1,349.38,222Z" transform="translate(-46.23 -211.73)"/><path class="cls-1" d="M292.53,304.72c8,8.26,10.8,15.77,11.75,21.45,1.38,8.31-.75,15.33,3.57,18.89,2.76,2.28,6.79,2,9.91,1.4l40.13-9.21,26.3-24.71-48.51-31.82Z" transform="translate(-46.23 -211.73)"/><path class="cls-2" d="M336.2,226.92a54.45,54.45,0,0,0-21.48,7A56.6,56.6,0,0,0,291,261.83a60.23,60.23,0,0,0-2.25,7c-1.2,4.6-7.92,30.52,4.1,40.15,7.93,6.36,20.39,2.71,26.75.88a50,50,0,0,0,24.51-16.34c1,.22,13,2.54,20.58-5.43,6-6.31,7.95-17.63,3.5-21.5-2.11-1.83-5.52-1.85-7.74-1.16-3.24,1-5.08,3.9-7.77,8.12a41,41,0,0,0-2.45,4.39c6.91-11.41,6.36-17.05,4.54-20.08-3.61-6-12.13-3.88-17.29-10.41C333,241.79,334.36,233.27,336.2,226.92Z" transform="translate(-46.23 -211.73)"/><path class="cls-1" d="M320.62,387.45A39.34,39.34,0,0,1,310.4,366a38.5,38.5,0,0,1,8-28.78c12.21-14.5,41.42-16.6,68.62,0,9,5.49,15.26,7.47,66.89,55.81,0,0,44.25,41.43,61.54,80.17a33.19,33.19,0,0,1,2.8,14.81,26.74,26.74,0,0,1-2,8.17,321.42,321.42,0,0,1-47.13,52.94c-55.14,49.56-115.25,68.72-151,76.76l-15.32-14.8c6-12,13-24.52,20.94-37.28a465.53,465.53,0,0,1,77.11-93.45Z" transform="translate(-46.23 -211.73)"/><path class="cls-1" d="M333.13,232.43a25.82,25.82,0,0,1,47.23-2.26,40.83,40.83,0,0,0,17.62,22,39.7,39.7,0,0,0,19.4,5.36,15.05,15.05,0,0,1,8.43,1c7.12,3.27,5.83,10.7,13,14.3,3.45,1.73,5.5,1.11,8.6,2a14.72,14.72,0,0,1,3.66,1.58,16,16,0,0,1,6.38,7.58,26.44,26.44,0,0,1,2.5,9.76c.65,11.36-6.48,19.45-8.29,21.39-2.55,2.88-6.42,6.22-11.32,6.46-6.35.32-7.89-4.89-15.06-5.87-8.55-1.17-17,4.79-21.45,7.92s-6.2,5.6-11.23,7.15a28.71,28.71,0,0,1-10.22.85c-4-.2-5.45-.83-11.92-2.19-8.61-1.8-13-2.68-16.5-2.07A22.53,22.53,0,0,0,342.91,333c-.56.56-5.35,5.25-11.82,4.17-1-.18-4.69-.84-6.64-3.58-2.88-4-1.58-11.22,3.76-17.36L350.49,294a19.75,19.75,0,0,0,11.93-3.93c6.42-5,9.4-14.57,6.26-20.94-.46-.94-1.9-3.85-4.66-4.49-3.64-.85-8.42,2.55-11.34,8.88,4.09-6.73,4-14,.31-17.71a9.62,9.62,0,0,0-5.49-2.63,17.92,17.92,0,0,1-14.37-20.75Z" transform="translate(-46.23 -211.73)"/><path class="cls-1" d="M73.64,347.11" transform="translate(-46.23 -211.73)"/><path class="cls-2" d="M269.85,458.76c-1.12-3.85-2.4-7.83-3.87-11.91a204.51,204.51,0,0,0-12.21-27.44" transform="translate(-46.23 -211.73)"/><path class="cls-2" d="M432.11,459c-3.5,2-7.08,4.1-10.73,6.45a204.38,204.38,0,0,0-24,18.07" transform="translate(-46.23 -211.73)"/><path class="cls-3" d="M334.17,270.64a10.87,10.87,0,0,0-2.72-4.86,11.8,11.8,0,0,0-9.19-3.13" transform="translate(-46.23 -211.73)"/><path class="cls-3" d="M307.56,256.56a10.68,10.68,0,0,0-3.56-4.29,11.79,11.79,0,0,0-9.6-1.43" transform="translate(-46.23 -211.73)"/><polygon class="cls-4" points="213.96 437.33 317.11 495.55 223.62 560.99 213.96 437.33"/><polygon class="cls-4" points="188.74 437.33 291.89 495.55 217.61 547.55 188.74 437.33"/><path class="cls-2" d="M318.06,625.91a30.65,30.65,0,0,0-8,6.13c-7.23,7.8-7.59,16.78-9.87,25.53-1.84,7.07-5.61,16.62-14.17,27.23l-22.25-17.86,12.93-50.05,13.11-1.7L298,615l4.76-3.91a16.06,16.06,0,0,1,15.32,14.8Z" transform="translate(-46.23 -211.73)"/><line class="cls-5" x1="271.83" y1="484.23" x2="217.53" y2="522.95"/><line class="cls-5" x1="251.4" y1="472.7" x2="213.96" y2="499.16"/><line class="cls-5" x1="281.33" y1="490" x2="216.52" y2="537.17"/><line class="cls-5" x1="260.42" y1="478.66" x2="212.16" y2="514.14"/><line class="cls-5" x1="283.64" y1="501.14" x2="214.21" y2="461.05"/><line class="cls-5" x1="275.03" y1="505.97" x2="205.6" y2="465.89"/><line class="cls-5" x1="267.26" y1="511.35" x2="197.84" y2="471.27"/><line class="cls-5" x1="259.11" y1="517.53" x2="189.68" y2="477.45"/><line class="cls-5" x1="249.93" y1="524.13" x2="180.51" y2="484.05"/><line class="cls-5" x1="239.89" y1="531.06" x2="170.46" y2="490.98"/><polygon class="cls-2" points="2.21 279.89 254.74 391.72 223.62 560.99 42.81 439.97 2.21 279.89"/><path class="cls-2" d="M155.41,317.07a126.86,126.86,0,0,1-10.71-18.74c-1.84-4-3.36-7.79-4.61-11.39a14.64,14.64,0,0,1,15.27-16.59,121.66,121.66,0,0,0-5.06-31.61c-.89-3.14.12-5.62,1.28-5.92s2.84,1.14,3.83,3.57A166.81,166.81,0,0,1,161.53,254c.68,2.36,1.76,8.66,4.6,21.13,2.72,12,4.62,18.19,7.57,33,.12.56.21,1,.27,1.34a10.78,10.78,0,0,1-18.56,7.59Z" transform="translate(-46.23 -211.73)"/><path class="cls-2" d="M153.84,298a3.23,3.23,0,1,1-5.51,3.19l-11-19a3.2,3.2,0,0,1,5.52-3.19Z" transform="translate(-46.23 -211.73)"/><path class="cls-2" d="M156.9,289.56c1.74,2.5,1.08,5.33-.22,6.07s-4-.15-5.3-2.88l-11-19a3.2,3.2,0,0,1,5.51-3.19Z" transform="translate(-46.23 -211.73)"/><path class="cls-2" d="M161.66,282.48a3.24,3.24,0,1,1-5.51,3.18q-5.51-9.51-11-19a3.34,3.34,0,0,1,5.52-3.18Z" transform="translate(-46.23 -211.73)"/><path class="cls-2" d="M163.75,297.67a59.87,59.87,0,0,0-14-11.24c-3-2.48-3.77-5.41-2.89-6.46s3-.73,5.28.37l16.38,7.79a26.66,26.66,0,0,1,4.89,9,27.08,27.08,0,0,1,.13,15.25" transform="translate(-46.23 -211.73)"/><path class="cls-6" d="M159.89,325.53c-.59-1.25-1.23-2.52-1.91-3.83-.85-1.62-1.72-3.17-2.57-4.63L174,309.48a20.68,20.68,0,0,0,4.18,12.78l-17.36,6.46Z" transform="translate(-46.23 -211.73)"/><path class="cls-1" d="M153,313.45c1.08,1.8,2.05,3.22,2.74,4.19,1.91,2.71,2.66,3.34,3.39,5.21a36.58,36.58,0,0,1,1,3.6c.39,1.52.69,2.78.88,3.66a14.33,14.33,0,0,0,18.64-6.47,23.24,23.24,0,0,1-5-11.16,22.38,22.38,0,0,1-.13-5.42" transform="translate(-46.23 -211.73)"/><polygon class="cls-7" points="316.76 503.56 225.04 569.59 224.94 561.54 317.66 497.59 316.76 503.56"/><line class="cls-8" x1="318.52" y1="495.28" x2="317.62" y2="497.76"/><polygon class="cls-9" points="44.59 447.89 223.15 569.59 223.62 560.99 42.81 439.97 44.59 447.89"/><line class="cls-8" x1="217.76" y1="566.26" x2="224.35" y2="571.13"/></svg>