<svg id="Layer_1" data-name="Layer 1" xmlns="http://www.w3.org/2000/svg" viewBox="0 0 381.82 477.44"><defs><style>.cls-1,.cls-2,.cls-3{fill:none;stroke-miterlimit:10;}.cls-1{stroke:#000;stroke-width:5px;}.cls-2,.cls-3{stroke:#222;stroke-width:5px;}.cls-2{stroke-linecap:round;}</style></defs><path class="cls-1" d="M-296.72,395" transform="translate(-126.26 -47.19)"/><path class="cls-2" d="M295.1,191.63c-4.35-2.76-13.46-7.63-25.2-7.15-18.4.77-30.54,14.2-32.59,16.55C226,214,226.77,226.46,213,241.8c-13,14.48-22.36,7.2-46.24,25.9-10.28,8.05-22.14,17.59-21.36,29.05.72,10.65,11.76,14,10.41,22-1.93,11.41-25.64,10.86-27.42,21.26-1.45,8.53,12.33,21.31,25.06,21.18,10.83-.12,12.61-9.5,23.48-9.93,13.71-.54,18.44,14.11,31.37,14.46,5.94.15,14.74-2.68,25.84-17.83" transform="translate(-126.26 -47.19)"/><path class="cls-2" d="M243.48,225C232,237.2,225.87,250.29,230,256.7c5.76,9.06,31.8,4.67,35.23,4.09,8.82-1.49,17.52-4.51,18.64-2.3,1,2-4.93,4.83-5.13,10.19-.3,8.05,12.66,14.36,15.05,15.53,3.91,1.91,15.68,7.65,25.19,2.74,7.26-3.75,6.7-10.37,14.29-12.59a16.1,16.1,0,0,1,13.28,2c5.53,3.76,6.56,10.27,7.28,14.77,1.36,8.53.65,24.39-10.34,30.85a21,21,0,0,1-10.86,2.7" transform="translate(-126.26 -47.19)"/><path class="cls-2" d="M243.48,225a128.11,128.11,0,0,1,41.06-28A134.73,134.73,0,0,1,331.47,187c7.22-.24,14.55-.41,23.92,2,6.95,1.78,21.56,5.51,29.06,16.58,6.79,10,1.06,16.1,8.44,27.26,4.82,7.29,11.47,11.06,16.73,14,21,11.61,32.08,3.2,55.15,12.25a71.21,71.21,0,0,1,31.8,27.61,62.36,62.36,0,0,1,7.72,19.07c1.37,6.38,4.24,19.63-2.56,32.69-3.49,6.71-12.24,18.7-21.78,17.7-8.64-.91-10.63-10.62-17.37-10.56-4.5.05-10.36,4.46-17.15,21.6" transform="translate(-126.26 -47.19)"/><path class="cls-2" d="M230.07,258.27c-16,69,13.36,121.06,43.15,126.13,22.42,3.81,49.74-18.18,68.17-49" transform="translate(-126.26 -47.19)"/><path class="cls-2" d="M448.81,359.42c-.76,1.82-1.91,4.49-3.38,7.68-11.33,24.65-17,37-27.32,42.64-10.68,5.86-26,5.76-36.57,0-11.38-6.22-12.49-16.33-24.3-18.23-5.89-1-9.35,1-16.89-1.52-4.76-1.57-10.27-3.39-11.77-7.28-3.86-10,23.21-21.92,22.13-37.79-.38-5.41-4.1-12.46-18.13-20.17" transform="translate(-126.26 -47.19)"/><path class="cls-3" d="M265.35,382.06c10.07,12.92,10.52,20.44,8.68,25s-6.14,6.41-5.62,9.7c.75,4.69,10.46,7.48,17.37,8.17,19.82,2,34.47-11.48,47-23,2.88-2.64,6.58-6.5,5.61-9.7-.62-2-2.89-3-3.69-3.36-4-1.89-9.07-8-13.56-26.91" transform="translate(-126.26 -47.19)"/><path class="cls-2" d="M138.18,522.63c8.26-18.83,31.24-63.84,81.7-90.39a171,171,0,0,1,46.47-16.34" transform="translate(-126.26 -47.19)"/><path class="cls-3" d="M280.46,49.19H154.27a11.26,11.26,0,0,0-11,11.42v74.58a11.25,11.25,0,0,0,11,11.42h53.45l25.33,33.18V146.61h47.41a11.26,11.26,0,0,0,11-11.42V60.61A11.26,11.26,0,0,0,280.46,49.19Z" transform="translate(-126.26 -47.19)"/><line class="cls-2" x1="72.62" y1="33.05" x2="33.33" y2="52.66"/><line class="cls-2" x1="71.29" y1="72.27" x2="33.33" y2="52.66"/><line class="cls-2" x1="109.11" y1="32.81" x2="148.4" y2="52.42"/><line class="cls-2" x1="110.43" y1="72.03" x2="148.4" y2="52.42"/><line class="cls-2" x1="102.98" y1="21.15" x2="78.74" y2="82.73"/></svg>