<svg id="Layer_1" data-name="Layer 1" xmlns="http://www.w3.org/2000/svg" viewBox="0 0 243.37 202.7"><defs><style>.cls-1,.cls-2,.cls-3{fill:#fff;}.cls-1,.cls-2{stroke:#1d1d1b;}.cls-1,.cls-2,.cls-3,.cls-4,.cls-5,.cls-6,.cls-7{stroke-miterlimit:10;}.cls-2,.cls-3,.cls-4,.cls-5{stroke-width:3px;}.cls-3,.cls-4,.cls-5,.cls-6,.cls-7{stroke:#222;}.cls-4,.cls-5,.cls-6,.cls-7{fill:none;}.cls-5,.cls-6,.cls-7{stroke-linecap:round;}.cls-6{stroke-width:7px;}.cls-7{stroke-width:4px;}</style></defs><path class="cls-1" d="M43.34,336.72" transform="translate(-159.1 -357.12)"/><path class="cls-2" d="M224.56,114.33" transform="translate(-159.1 -357.12)"/><path class="cls-3" d="M400,527.83l-27.8,0h-16V388c0-15.53-14-28.24-31.18-28.24H212.57c-3-.09-7.19-.16-12.26,0-10.46.23-15.68.35-18.9,1.48a30.67,30.67,0,0,0-19,20.8,27.1,27.1,0,0,0-.75,7.05h48.53l.37,139.89c0,13,9.82,24,23.07,27.26h0a33.67,33.67,0,0,0,8.11,1h83.65c17.72.15,36.32.28,39.85.08,7.74-.46,13.76-.81,19.71-3.91a27.44,27.44,0,0,0,11.58-11.82A27.11,27.11,0,0,0,400,527.83Z" transform="translate(-159.1 -357.12)"/><line class="cls-4" x1="198.57" y1="170.69" x2="110.3" y2="170.69"/><path class="cls-4" d="M210.14,386.82c0-2.77-.49-12.37-7.28-19.59a21,21,0,0,0-9.25-6.14,19.8,19.8,0,0,0-7.23-.86" transform="translate(-159.1 -357.12)"/><path class="cls-4" d="M270.09,525.3c0,3.31-.59,14.79-8.94,23.43a26,26,0,0,1-11.36,7.33,25.07,25.07,0,0,1-8.89,1" transform="translate(-159.1 -357.12)"/><line class="cls-5" x1="94.79" y1="51.27" x2="172.75" y2="51.27"/><line class="cls-5" x1="94.79" y1="96.35" x2="172.75" y2="96.35"/><line class="cls-5" x1="94.79" y1="143.44" x2="172.75" y2="143.44"/><line class="cls-6" x1="76.58" y1="96.35" x2="76.58" y2="96.35"/><line class="cls-6" x1="76.58" y1="143.44" x2="76.58" y2="143.44"/><polyline class="cls-7" points="69.23 51.18 75.68 57.63 83.92 44.9"/></svg>